<?xml version="1.0" encoding="UTF-8"?>
<!DOCTYPE svg PUBLIC "-//W3C//DTD SVG 1.1//EN" "http://www.w3.org/Graphics/SVG/1.1/DTD/svg11.dtd">
<!-- Creator: CorelDRAW -->
<svg xmlns="http://www.w3.org/2000/svg" xml:space="preserve" width="74.8121mm" height="57.404mm" version="1.1" style="shape-rendering:geometricPrecision; text-rendering:geometricPrecision; image-rendering:optimizeQuality; fill-rule:evenodd; clip-rule:evenodd"
viewBox="0 0 6010.76 4612.11"
 xmlns:xlink="http://www.w3.org/1999/xlink"
 xmlns:xodm="http://www.corel.com/coreldraw/odm/2003">
 <defs>
  <style type="text/css">
   <![CDATA[
    .fil0 {fill:#F8F8F8}
   ]]>
  </style>
 </defs>
 <g id="Layer_x0020_1">
  <metadata id="CorelCorpID_0Corel-Layer"/>
  <path class="fil0" d="M3020.26 2906.34c-3.37,-9.5 -15.84,-21.87 -22.64,-31.5 -8.32,-11.8 -16.89,-20.83 -25.45,-31.63l-96.57 -125.89c-8.24,-11.35 -16.53,-19.81 -25.53,-31.52l-109.37 -141.61c-5.68,-7.16 -6.48,-9.4 -12.16,-16.49l-493.1 -632.97c-68.73,-92.33 -142.81,-183.11 -212.85,-274.76 -69.62,-91.1 -142.6,-188.74 -214.97,-277.37l-29.13 -37.57c-9.58,-12.85 -17.61,-22.56 -27.64,-35.89l-86.16 -110.76c-5.25,-6.43 -9.11,-12.16 -13.66,-18.11l-242.78 -313.08c-31.38,-40.17 -58.29,-74.25 -72.88,-127.23 -30.39,-110.32 8.85,-195.8 73.47,-265.56 7.14,-7.71 8.23,-11.32 15.78,-19.15 5.87,-6.11 10.32,-9.66 15.99,-15.78 7.13,-7.71 8.23,-11.33 15.77,-19.16l109.72 -118.98c7.16,-7.44 7.83,-10.23 14.25,-17.52 5.38,-6.1 10.14,-10 15.92,-15.84 29.64,-29.9 62.28,-72.11 93.68,-103.24 40.55,-40.21 57.83,-75.85 128,-103.88 104.31,-41.67 220.11,-17.64 294.91,57.28l45.88 49.4c5.62,7.05 10.57,11.3 17.16,17.78 12.56,12.37 19.04,22.44 31.74,34.96l188.86 205.02c6.37,7.62 6.97,9.91 14.37,17.39l125.39 135.08c6.93,8.3 7.87,10.89 15.97,18.96l627.33 684.49c19.6,21.19 45.21,44.45 62.77,67.46l204.06 221.57c6.41,7.29 7.09,10.08 14.25,17.52l974.65 1061.38c11.17,14.46 19.48,20.1 30.69,32.83l312.93 341.39c6.72,7.26 7.5,10.28 14.21,17.55l142.93 155.64c19.6,21.19 45.21,44.45 62.77,67.46l94.56 102.38c7.4,7.48 8,9.77 14.37,17.39l47.5 50.96c12.76,12.57 19.47,22.85 31.74,34.97 5.78,5.7 10.61,9.9 15.88,15.88 6.41,7.29 7.09,10.08 14.25,17.52l126.98 136.66c6.37,7.62 6.97,9.91 14.37,17.39 6.37,6.44 11.46,10.77 17.57,17.37 6.72,7.26 7.5,10.28 14.21,17.55l328.8 357.29c12.7,12.52 19.19,22.59 31.74,34.96 5.73,5.65 10.64,9.9 15.76,16.01l78.1 87.06c41.39,49.52 124.58,118.88 149.34,177.83 45.41,108.18 -6.19,218.84 -99.38,264.7 -35.36,17.41 -62.31,18.99 -114.42,18.99l-1311.83 0c-152.9,0 -101.68,27.06 -185.22,-75.24l-172.37 -221.49c-10.76,-13.77 -17.98,-24.34 -28.93,-37.77l-201.06 -259.51c-5.26,-6.88 -8.23,-9.77 -14.13,-17.63l-215.04 -277.29c-4.92,-6.16 -8.31,-11.38 -13.6,-18.16l-142.94 -184.23c-6.15,-7.89 -9.37,-11.28 -15.45,-19.48l-84.41 -109.35c-127.14,-158.97 -247.03,-323.97 -374.98,-482.37z"/>
  <path class="fil0" d="M2235.43 1894.72l493.1 632.97c5.68,7.09 6.48,9.34 12.16,16.49l109.37 141.61c8.99,11.71 17.28,20.17 25.53,31.52l96.57 125.89c8.56,10.81 17.13,19.83 25.45,31.63 6.8,9.63 19.27,22.01 22.64,31.5l-4.61 5.13c-2.59,3.05 -3.54,4.28 -5.68,7.1l-664.09 838.3c-86.06,104.74 -166.48,214.39 -252.64,319.1l-410.14 517.35c-6.85,8.46 -6.89,4.39 -9.87,15.54l-1445.23 0c-99.13,0.01 -164.19,-29.21 -203.31,-107.98 -49.52,-99.72 -20.79,-184.89 53.26,-258.07l222.35 -241.4c34.61,-34.22 63.99,-73.85 98.39,-108.07 18.77,-18.67 32.19,-35.43 50.9,-53.92l199.04 -217.07c8.26,-10.7 15.78,-16.39 24.92,-25.89l147.7 -160.41c48,-48.5 98.74,-110.91 149.29,-161.99l47.91 -53.74c22.75,-28.51 52.22,-51.45 74.87,-80.77 8.27,-10.7 15.79,-16.4 24.93,-25.9 6.28,-6.52 6.32,-7.7 11.37,-14.04l185.64 -201.87c8.52,-10.18 17.86,-17.32 26.9,-27.1l100.02 -109.62c4.77,-4.73 8.33,-7.79 12.68,-12.73 5.56,-6.32 5.6,-7.92 11.16,-14.25 8.34,-9.46 16.81,-16.07 25.43,-25.39l49.15 -55.67c8.62,-9.31 17.09,-15.92 25.42,-25.39 50.94,-57.84 110.78,-116.86 158.99,-174.53l26.71 -27.29c5.34,-6.4 5.24,-7.73 11.22,-14.19 9.04,-9.78 18.38,-16.92 26.89,-27.11l433.81 -471.39c8.75,-8.43 9.22,-6.27 11.82,-18.37z"/>
  <path class="fil0" d="M4084.06 0c70.18,0 123.8,19.67 173.4,58.47 7.22,5.65 13.78,12.08 20.04,18.09l125.06 135.41c7.95,8.25 9.39,12.53 17.34,20.78l177.8 193.83c7.61,9.1 8.8,11.79 17.64,20.49 13.71,13.47 21.95,26.67 32.34,43.88 44.55,73.84 49.9,172.96 13.45,251.29 -22.38,48.1 -107.04,153.39 -145.05,207.52l-248.27 339.35c-17.11,23.3 -31.9,44.78 -49.42,68.1l-272.26 372.53c-9.48,12.58 -15.4,25.22 -27.22,33.13l-755.96 -829.03c2.13,-7.97 16.62,-23.47 24.67,-32.5l134.15 -154.9c5.33,-6.96 7.54,-8.52 13.44,-15.14 38.89,-43.65 96.66,-115.99 133.47,-155.58l28.25 -32.1c5.72,-7.1 6,-8.52 13.02,-15.57l201.71 -233.45c6.41,-6.9 6.76,-9.08 12.76,-15.83 9.6,-10.77 16.86,-19.8 26.99,-30.19 99.58,-102.29 164.75,-248.59 332.68,-248.59z"/>
 </g>
</svg>
